<svg width="194" height="206" viewBox="0 0 194 206" fill="none" xmlns="http://www.w3.org/2000/svg">
<path d="M92.9474 89.8351L92.9511 89.8363C93.6078 90.0487 94.067 90.4431 94.3554 91.0379C94.439 91.2195 94.5046 91.3756 94.5533 91.5286C93.1212 94.1645 92.14 97.2304 91.595 100.692L91.538 101.054L91.5756 101.073C90.103 104.854 88.8136 107.799 87.7133 109.921L87.6594 110.02C87.3073 110.67 86.9746 111.284 86.6309 111.842L86.6307 111.842L86.6242 111.853C84.8422 114.923 83.0856 117.045 81.4012 118.273C79.7901 119.441 78.2328 119.893 76.7045 119.7L76.6947 119.699L76.6849 119.698C75.0117 119.554 73.4837 118.736 72.0824 117.138C70.7987 115.663 70.0071 113.189 69.7957 109.588C69.7421 107.067 69.9117 103.852 70.342 99.9515C70.636 97.4861 71.1014 94.294 71.7662 90.3607C72.4314 86.4457 72.7891 84.2187 72.866 83.7039C72.9855 82.9381 73.315 82.3972 73.8237 82.0185L73.8311 82.013L73.8384 82.0072C74.3201 81.6199 74.9182 81.4652 75.6469 81.5656L75.6469 81.5656L75.6543 81.5665C76.3665 81.6538 76.8922 81.9587 77.2717 82.4647L77.2765 82.471L77.2814 82.4772C77.6779 82.9723 77.8409 83.5548 77.7791 84.2341C77.6949 84.832 77.3462 87.065 76.6848 90.9784C76.0388 94.6076 75.5495 97.8197 75.2526 100.605C74.8191 104.259 74.6376 107.152 74.7004 109.294L74.7007 109.303L74.7013 109.311C74.7775 110.496 74.891 111.459 75.0444 112.2C75.1934 112.921 75.3938 113.508 75.6926 113.872L75.6993 113.88L75.7064 113.888C75.9418 114.151 76.1645 114.373 76.3778 114.541C76.5873 114.706 76.82 114.846 77.0754 114.899L77.1259 114.909H77.1774C77.3808 114.909 77.5882 114.847 77.782 114.764C77.9823 114.678 78.2039 114.555 78.4451 114.398L78.4581 114.389L78.4706 114.38C79.9352 113.295 81.5646 111.016 83.3123 107.656L83.3132 107.655C84.3622 105.62 85.5643 102.816 86.9399 99.198C87.8199 96.917 88.7816 94.282 89.7978 91.334C90.0383 90.7361 90.4612 90.2823 91.0957 89.9659C91.6998 89.6681 92.3119 89.6241 92.9474 89.8351ZM76.841 65.6736C77.5101 65.6736 78.084 65.9071 78.5821 66.4033C79.0766 66.896 79.3137 67.4546 79.3137 68.1149C79.3137 68.7985 79.0814 69.3494 78.5821 69.8469C78.0903 70.3369 77.5093 70.5767 76.841 70.5767C76.1757 70.5767 75.6214 70.3459 75.1206 69.8469C74.6275 69.3556 74.3889 68.7976 74.3889 68.1149C74.3889 67.4537 74.6199 66.9022 75.1206 66.4033C75.6151 65.9106 76.1766 65.6736 76.841 65.6736Z" fill="#01A4FF" stroke="#01A4FF"/>
<path d="M114.643 109.799C114.735 109.647 114.815 109.506 114.89 109.374C115.07 109.058 115.222 108.792 115.442 108.55C115.651 108.324 115.83 108.177 115.979 108.081C116.203 107.942 116.32 107.958 116.369 107.973C116.434 107.993 116.534 108.06 116.644 108.243C116.869 108.619 116.997 109.255 116.991 109.842L116.991 109.845C116.984 111.709 116.441 113.747 115.285 115.166C113.636 117.174 111.158 118.535 108.664 119.352L108.663 119.352C105.371 120.438 101.531 120.95 97.9954 120.412C94.4659 119.874 91.2687 118.298 89.1794 115.229L89.1787 115.228C88.4954 114.23 87.9307 113.138 87.4916 111.945L87.4915 111.945C86.3137 108.749 86.0562 104.859 86.7545 100.312L86.7547 100.311C86.8168 99.8985 86.8771 99.4987 86.9503 99.1209L86.9505 99.1209L86.9527 99.1073C87.8268 93.8141 89.6796 89.3514 92.4585 85.6972C94.0989 83.5695 95.9825 82.0025 98.0931 80.9873C100.158 79.994 102.357 79.8592 104.726 80.6207C106.731 81.3259 108.229 82.3835 109.254 83.7784C110.281 85.1753 110.861 86.9472 110.963 89.1242L110.963 89.1242L110.964 89.1311C111.169 92.4904 110.154 95.9148 107.873 99.4153C105.493 103.039 102.585 105.398 99.1497 106.526C96.7581 107.296 94.4193 107.327 92.1119 106.619L91.3905 106.398L91.468 107.149C91.6934 109.331 92.2608 111.113 93.1982 112.506L93.1983 112.507C94.7484 114.808 97.3185 115.705 99.925 115.655L99.9263 115.655C103.09 115.586 106.559 115.066 109.536 113.86L109.537 113.86C111.549 113.041 113.478 111.719 114.643 109.799ZM114.643 109.799L114.216 109.539M114.643 109.799C114.643 109.799 114.643 109.799 114.643 109.799L114.216 109.539M114.216 109.539C113.124 111.338 111.298 112.604 109.348 113.397M114.216 109.539C114.289 109.418 114.359 109.295 114.429 109.172C114.621 108.835 114.812 108.498 115.074 108.212C115.307 107.959 115.52 107.781 115.712 107.658L109.348 113.397M109.348 113.397C106.444 114.574 103.039 115.087 99.9154 115.155C97.4233 115.203 95.041 114.348 93.613 112.227L109.348 113.397ZM103.785 96.6754L103.785 96.6754L103.789 96.6705C105.425 94.1371 106.202 91.708 106.058 89.3896C106.017 88.3718 105.756 87.4941 105.243 86.7935C104.73 86.0919 103.993 85.6085 103.074 85.3291C100.781 84.4991 98.5238 85.8067 96.3857 88.6626C95.7469 89.5021 95.1715 90.3833 94.6525 91.3125L94.6524 91.3128C94.6494 91.3174 94.6464 91.3222 94.6434 91.3272C94.6349 91.3413 94.6267 91.3563 94.6191 91.3723L94.5891 91.4261V91.4312C93.1301 94.0874 92.1326 97.1839 91.5813 100.685L91.5243 101.047L91.8523 101.211C91.8637 101.216 91.875 101.223 91.8948 101.233C91.9106 101.242 91.9328 101.254 91.9581 101.267C93.7907 102.283 95.6669 102.501 97.5886 101.889L97.5959 101.887L97.6031 101.885C100.003 101.039 102.06 99.2789 103.785 96.6754Z" fill="#01A4FF" stroke="#01A4FF"/>
<path d="M119.688 108.534V109.034H120.188H129.038C130.425 109.034 131.572 110.18 131.572 111.557C131.572 112.932 130.427 114.081 129.017 114.081H123.085C121.202 114.081 119.688 115.611 119.688 117.467V139.8V159.527H112.073L112.127 106.448V106.448C112.127 98.8436 113.907 92.7333 117.389 88.0808C120.89 83.4303 125.231 81.1394 130.438 81.1394C133.118 81.1394 135.037 81.7099 136.295 82.8082L136.295 82.8085C137.564 83.9138 138.197 85.2242 138.197 86.7819C138.197 88.2374 137.841 89.4385 137.169 90.393L137.167 90.3967C136.548 91.2922 135.583 91.7815 134.207 91.7815C133.353 91.7815 132.608 91.5713 131.965 91.1726L131.965 91.1724L131.953 91.1654C131.291 90.7793 130.668 90.2157 130.07 89.4891C129.488 88.7702 128.935 87.9416 128.42 87.0084C127.908 86.0509 127.449 85.2614 127.071 84.6616L126.914 84.4115L126.619 84.4291C124.258 84.5703 122.537 86.4071 121.4 89.5605C120.257 92.7311 119.688 97.7358 119.688 104.498V108.534Z" fill="#01A4FF" stroke="#01A4FF"/>
<path d="M182.162 166.061H184.476C165.819 189.848 136.853 205.21 104.285 205.493C45.9859 206.004 -1.41482 157.528 0.55953 99.4738L0.0598185 99.4568L0.559531 99.4737C2.4246 44.4954 47.7405 0.5 103.376 0.5C141.926 0.5 175.525 21.627 193.145 52.8929C182.332 52.6721 172.079 48.2248 164.304 40.6825C148.568 25.4102 127.073 15.9986 103.369 15.9986C56.8525 15.9986 18.833 52.2396 16.209 97.9369C13.2121 150.13 57.3622 193.496 109.686 189.774C125.181 188.674 139.564 183.541 151.779 175.423L151.779 175.423C160.805 169.421 171.33 166.061 182.162 166.061Z" fill="#00A4FF" stroke="#01A4FF"/>
<path d="M167.553 152.161H169.123C154.628 170.531 132.198 182.392 106.976 182.613C61.687 183.007 24.8727 145.359 26.4077 100.267L25.9079 100.25L26.4077 100.267C27.8608 57.5603 63.0573 23.3875 106.273 23.3875C136.151 23.3875 162.191 39.7185 175.904 63.9167C167.594 63.6956 159.726 60.2612 153.745 54.4588C141.483 42.5587 124.739 35.2265 106.273 35.2265C70.034 35.2265 40.4178 63.4645 38.3705 99.0656C36.0326 139.719 70.4271 173.509 111.19 170.608C123.265 169.747 134.47 165.75 143.98 159.424L143.98 159.424C150.981 154.763 159.144 152.161 167.553 152.161Z" fill="#00A4FF" stroke="#01A4FF"/>
</svg>
