<svg width="141" height="139" viewBox="0 0 141 139" fill="none" xmlns="http://www.w3.org/2000/svg">
<g style="mix-blend-mode:overlay" opacity="0.2">
<path d="M-0.490005 281.03C-77.97 281.03 -141 217.99 -141 140.51C-141 63.03 -77.97 0 -0.490005 0C76.99 0 140.02 63.03 140.02 140.51C140.02 217.99 76.99 281.03 -0.490005 281.03ZM-0.490005 1.81C-76.97 1.81 -139.19 64.03 -139.19 140.52C-139.19 217.01 -76.97 279.23 -0.490005 279.23C75.99 279.23 138.21 217.01 138.21 140.52C138.21 64.03 75.99 1.81 -0.490005 1.81Z" fill="#F8F6FE"/>
</g>
<g style="mix-blend-mode:overlay" opacity="0.3">
<path d="M-0.490074 264.09C-68.6301 264.09 -124.07 208.65 -124.07 140.51C-124.07 72.37 -68.6301 16.93 -0.490074 16.93C67.6499 16.93 123.09 72.37 123.09 140.51C123.09 208.65 67.6499 264.09 -0.490074 264.09ZM-0.490074 18.74C-67.6301 18.74 -122.26 73.36 -122.26 140.51C-122.26 207.65 -67.6401 262.28 -0.490074 262.28C66.6599 262.28 121.28 207.66 121.28 140.51C121.28 73.37 66.6599 18.74 -0.490074 18.74Z" fill="#F8F6FE"/>
</g>
<g style="mix-blend-mode:overlay" opacity="0.4">
<path d="M-0.490005 247.15C-59.29 247.15 -107.13 199.31 -107.13 140.51C-107.13 81.71 -59.29 33.87 -0.490005 33.87C58.31 33.87 106.15 81.71 106.15 140.51C106.15 199.31 58.31 247.15 -0.490005 247.15ZM-0.490005 35.68C-58.29 35.68 -105.32 82.71 -105.32 140.51C-105.32 198.31 -58.29 245.34 -0.490005 245.34C57.31 245.34 104.34 198.31 104.34 140.51C104.34 82.71 57.32 35.68 -0.490005 35.68Z" fill="#F8F6FE"/>
</g>
<g style="mix-blend-mode:overlay" opacity="0.5">
<path d="M-0.489944 230.22C-49.9499 230.22 -90.1899 189.98 -90.1899 140.52C-90.1899 91.06 -49.9499 50.82 -0.489944 50.82C48.9701 50.82 89.2101 91.06 89.2101 140.52C89.2101 189.98 48.9701 230.22 -0.489944 230.22ZM-0.489944 52.62C-48.9599 52.62 -88.3899 92.05 -88.3899 140.52C-88.3899 188.99 -48.9599 228.42 -0.489944 228.42C47.9801 228.42 87.4001 188.99 87.4001 140.52C87.4001 92.05 47.9801 52.62 -0.489944 52.62Z" fill="#F8F6FE"/>
</g>
<g style="mix-blend-mode:overlay" opacity="0.6">
<path d="M-0.490013 213.28C-40.61 213.28 -73.26 180.64 -73.26 140.51C-73.26 100.38 -40.62 67.74 -0.490013 67.74C39.64 67.74 72.28 100.38 72.28 140.51C72.28 180.64 39.64 213.28 -0.490013 213.28ZM-0.490013 69.55C-39.62 69.55 -71.45 101.38 -71.45 140.51C-71.45 179.64 -39.62 211.47 -0.490013 211.47C38.64 211.47 70.47 179.64 70.47 140.51C70.47 101.38 38.64 69.55 -0.490013 69.55Z" fill="#F8F6FE"/>
</g>
<g style="mix-blend-mode:overlay" opacity="0.7">
<path d="M-0.490074 196.34C-31.2701 196.34 -56.3201 171.3 -56.3201 140.51C-56.3201 109.72 -31.2801 84.68 -0.490074 84.68C30.2999 84.68 55.3399 109.72 55.3399 140.51C55.3399 171.3 30.2999 196.34 -0.490074 196.34ZM-0.490074 86.49C-30.2801 86.49 -54.5101 110.72 -54.5101 140.51C-54.5101 170.3 -30.2801 194.53 -0.490074 194.53C29.2999 194.53 53.5299 170.3 53.5299 140.51C53.5299 110.72 29.2999 86.49 -0.490074 86.49Z" fill="#F8F6FE"/>
</g>
<g style="mix-blend-mode:overlay" opacity="0.8">
<path d="M-0.490013 179.41C-21.94 179.41 -39.38 161.96 -39.38 140.52C-39.38 119.08 -21.93 101.63 -0.490013 101.63C20.95 101.63 38.4 119.08 38.4 140.52C38.4 161.96 20.96 179.41 -0.490013 179.41ZM-0.490013 103.43C-20.94 103.43 -37.58 120.07 -37.58 140.51C-37.58 160.95 -20.94 177.59 -0.490013 177.59C19.96 177.59 36.59 160.95 36.59 140.51C36.59 120.07 19.96 103.43 -0.490013 103.43Z" fill="#F8F6FE"/>
</g>
<g style="mix-blend-mode:overlay">
<path d="M-0.48996 162.47C-12.6 162.47 -22.45 152.62 -22.45 140.51C-22.45 128.4 -12.6 118.55 -0.48996 118.55C11.62 118.55 21.47 128.4 21.47 140.51C21.47 152.62 11.62 162.47 -0.48996 162.47ZM-0.48996 120.36C-11.6 120.36 -20.64 129.4 -20.64 140.51C-20.64 151.62 -11.6 160.66 -0.48996 160.66C10.62 160.66 19.66 151.62 19.66 140.51C19.66 129.4 10.62 120.36 -0.48996 120.36Z" fill="#F8F6FE"/>
</g>
</svg>
