<svg width="131" height="124" viewBox="0 0 131 124" fill="none" xmlns="http://www.w3.org/2000/svg">
<g style="mix-blend-mode:overlay" opacity="0.2">
<path d="M140.51 123.03C63.03 123.03 0 59.99 0 -17.49C0 -94.97 63.03 -158 140.51 -158C217.99 -158 281.02 -94.97 281.02 -17.49C281.02 59.99 217.99 123.03 140.51 123.03ZM140.51 -156.19C64.03 -156.19 1.81 -93.97 1.81 -17.48C1.81 59.01 64.03 121.23 140.51 121.23C216.99 121.23 279.21 59.01 279.21 -17.48C279.21 -93.97 216.99 -156.19 140.51 -156.19Z" fill="#F8F6FE"/>
</g>
<g style="mix-blend-mode:overlay" opacity="0.3">
<path d="M140.51 106.09C72.3699 106.09 16.9299 50.6499 16.9299 -17.4901C16.9299 -85.6301 72.3699 -141.07 140.51 -141.07C208.65 -141.07 264.09 -85.6301 264.09 -17.4901C264.09 50.6499 208.65 106.09 140.51 106.09ZM140.51 -139.26C73.3699 -139.26 18.7399 -84.6401 18.7399 -17.4901C18.7399 49.6499 73.3599 104.28 140.51 104.28C207.66 104.28 262.28 49.6599 262.28 -17.4901C262.28 -84.6301 207.66 -139.26 140.51 -139.26Z" fill="#F8F6FE"/>
</g>
<g style="mix-blend-mode:overlay" opacity="0.4">
<path d="M140.51 89.15C81.71 89.15 33.87 41.31 33.87 -17.49C33.87 -76.29 81.71 -124.13 140.51 -124.13C199.31 -124.13 247.15 -76.29 247.15 -17.49C247.15 41.31 199.31 89.15 140.51 89.15ZM140.51 -122.32C82.71 -122.32 35.68 -75.29 35.68 -17.49C35.68 40.31 82.71 87.34 140.51 87.34C198.31 87.34 245.34 40.31 245.34 -17.49C245.34 -75.29 198.32 -122.32 140.51 -122.32Z" fill="#F8F6FE"/>
</g>
<g style="mix-blend-mode:overlay" opacity="0.5">
<path d="M140.51 72.2201C91.0501 72.2201 50.8101 31.9801 50.8101 -17.4799C50.8101 -66.9399 91.0501 -107.18 140.51 -107.18C189.97 -107.18 230.21 -66.9399 230.21 -17.4799C230.21 31.9801 189.97 72.2201 140.51 72.2201ZM140.51 -105.38C92.0401 -105.38 52.6101 -65.9499 52.6101 -17.4799C52.6101 30.9901 92.0401 70.4201 140.51 70.4201C188.98 70.4201 228.4 30.9901 228.4 -17.4799C228.4 -65.9499 188.98 -105.38 140.51 -105.38Z" fill="#F8F6FE"/>
</g>
<g style="mix-blend-mode:overlay" opacity="0.6">
<path d="M140.51 55.28C100.39 55.28 67.74 22.64 67.74 -17.49C67.74 -57.62 100.38 -90.26 140.51 -90.26C180.64 -90.26 213.28 -57.62 213.28 -17.49C213.28 22.64 180.64 55.28 140.51 55.28ZM140.51 -88.45C101.38 -88.45 69.55 -56.62 69.55 -17.49C69.55 21.64 101.38 53.47 140.51 53.47C179.64 53.47 211.47 21.64 211.47 -17.49C211.47 -56.62 179.64 -88.45 140.51 -88.45Z" fill="#F8F6FE"/>
</g>
<g style="mix-blend-mode:overlay" opacity="0.7">
<path d="M140.51 38.3399C109.73 38.3399 84.6799 13.2999 84.6799 -17.4901C84.6799 -48.2801 109.72 -73.3201 140.51 -73.3201C171.3 -73.3201 196.34 -48.2801 196.34 -17.4901C196.34 13.2999 171.3 38.3399 140.51 38.3399ZM140.51 -71.5101C110.72 -71.5101 86.4899 -47.2801 86.4899 -17.4901C86.4899 12.2999 110.72 36.5299 140.51 36.5299C170.3 36.5299 194.53 12.2999 194.53 -17.4901C194.53 -47.2801 170.3 -71.5101 140.51 -71.5101Z" fill="#F8F6FE"/>
</g>
<g style="mix-blend-mode:overlay" opacity="0.8">
<path d="M140.51 21.41C119.06 21.41 101.62 3.96001 101.62 -17.48C101.62 -38.92 119.07 -56.37 140.51 -56.37C161.95 -56.37 179.4 -38.92 179.4 -17.48C179.4 3.96001 161.96 21.41 140.51 21.41ZM140.51 -54.57C120.06 -54.57 103.42 -37.93 103.42 -17.49C103.42 2.95 120.06 19.59 140.51 19.59C160.96 19.59 177.59 2.95 177.59 -17.49C177.59 -37.93 160.96 -54.57 140.51 -54.57Z" fill="#F8F6FE"/>
</g>
<g style="mix-blend-mode:overlay">
<path d="M140.51 4.47005C128.4 4.47005 118.55 -5.37996 118.55 -17.49C118.55 -29.6 128.4 -39.45 140.51 -39.45C152.62 -39.45 162.47 -29.6 162.47 -17.49C162.47 -5.37996 152.62 4.47005 140.51 4.47005ZM140.51 -37.64C129.4 -37.64 120.36 -28.6 120.36 -17.49C120.36 -6.37996 129.4 2.66005 140.51 2.66005C151.62 2.66005 160.66 -6.37996 160.66 -17.49C160.66 -28.6 151.62 -37.64 140.51 -37.64Z" fill="#F8F6FE"/>
</g>
</svg>
